<?xml version="1.0" encoding="UTF-8" standalone="no" ?>
<!DOCTYPE svg PUBLIC "-//W3C//DTD SVG 1.1//EN" "http://www.w3.org/Graphics/SVG/1.1/DTD/svg11.dtd">
<svg xmlns="http://www.w3.org/2000/svg" xmlns:xlink="http://www.w3.org/1999/xlink" version="1.1" width="635" height="1085" viewBox="0 0 635 1085" xml:space="preserve">
<desc>Created with Fabric.js 4.4.0</desc>
<defs>
</defs>
<g transform="matrix(0.9343698498177934 0 0 0.9343698498177934 317.7250005374148 542.8765355017445)" id="background-ed1ea83f-9ac6-490b-ac3f-a9e20981306d"  >
<rect style="stroke: none; stroke-width: 0; stroke-dasharray: none; stroke-linecap: butt; stroke-dashoffset: 0; stroke-linejoin: miter; stroke-miterlimit: 4; fill: rgb(76,6,146); fill-opacity: 0; fill-rule: nonzero; opacity: 1;"  paint-order="stroke"  x="-340" y="-581" rx="0" ry="0" width="680" height="1162" />
</g>
<g transform="matrix(0.104448385293109 0 0 0.104448385293109 286.6627548353486 906.0972861500265)" id="shape-1-logo"  >
<g style=""  paint-order="stroke"   >
		<g transform="matrix(1 0 0 1 0 0)" id="Layer_1"  >
<path style="stroke: none; stroke-width: 1; stroke-dasharray: none; stroke-linecap: butt; stroke-dashoffset: 0; stroke-linejoin: miter; stroke-miterlimit: 4; fill: rgb(255,49,152); fill-rule: nonzero; opacity: 1;"  paint-order="stroke"  transform=" translate(-100, -100)" d="M 200 100 C 200 155.22847498307934 155.22847498307934 200 100 200 C 44.771525016920656 200 0 155.22847498307934 0 100 C 0 44.771525016920656 44.771525016920656 0 100 0 C 155.22847498307934 0 200 44.77152501692063 200 99.99999999999997 Z" stroke-linecap="round" />
</g>
</g>
</g>
<g transform="matrix(0 0.104448385293109 -0.104448385293109 0 119.8536730131963 994.4655281598052)" id="shape-2-logo"  >
<g style=""  paint-order="stroke"   >
		<g transform="matrix(1 0 0 1 0 0)" id="Layer_1"  >
<path style="stroke: none; stroke-width: 1; stroke-dasharray: none; stroke-linecap: butt; stroke-dashoffset: 0; stroke-linejoin: miter; stroke-miterlimit: 4; fill: rgb(255,49,152); fill-rule: nonzero; opacity: 1;"  paint-order="stroke"  transform=" translate(-100, -100)" d="M 200 100 C 200 155.22847498307934 155.22847498307934 200 100 200 C 44.771525016920656 200 0 155.22847498307934 0 100 C 0 44.771525016920656 44.771525016920656 0 100 0 C 155.22847498307934 0 200 44.77152501692063 200 99.99999999999997 Z" stroke-linecap="round" />
</g>
</g>
</g>
<g transform="matrix(0.104448385293109 0 0 0.104448385293109 74.20910469194126 797.0370208869158)" id="shape-3-logo"  >
<g style=""  paint-order="stroke"   >
		<g transform="matrix(1 0 0 1 0 0)" id="Layer_1"  >
<path style="stroke: none; stroke-width: 1; stroke-dasharray: none; stroke-linecap: butt; stroke-dashoffset: 0; stroke-linejoin: miter; stroke-miterlimit: 4; fill: rgb(255,49,152); fill-rule: nonzero; opacity: 1;"  paint-order="stroke"  transform=" translate(-100, -100)" d="M 200 100 C 200 155.22847498307934 155.22847498307934 200 100 200 C 44.771525016920656 200 0 155.22847498307934 0 100 C 0 44.771525016920656 44.771525016920656 0 100 0 C 155.22847498307934 0 200 44.77152501692063 200 99.99999999999997 Z" stroke-linecap="round" />
</g>
</g>
</g>
<g transform="matrix(0.104448385293109 0 0 0.104448385293109 226.41134897053445 855.8180559676873)" id="shape-4-logo"  >
<g style=""  paint-order="stroke"   >
		<g transform="matrix(1 0 0 1 0 0)" id="Layer_1"  >
<path style="stroke: none; stroke-width: 1; stroke-dasharray: none; stroke-linecap: butt; stroke-dashoffset: 0; stroke-linejoin: miter; stroke-miterlimit: 4; fill: rgb(255,49,152); fill-rule: nonzero; opacity: 1;"  paint-order="stroke"  transform=" translate(-100, -100)" d="M 200 100 C 200 155.22847498307934 155.22847498307934 200 100 200 C 44.771525016920656 200 0 155.22847498307934 0 100 C 0 44.771525016920656 44.771525016920656 0 100 0 C 155.22847498307934 0 200 44.77152501692063 200 99.99999999999997 Z" stroke-linecap="round" />
</g>
</g>
</g>
<g transform="matrix(0 -0.104448385293109 0.104448385293109 0 221.97076104299103 968.5139778825138)" id="shape-5-logo"  >
<g style=""  paint-order="stroke"   >
		<g transform="matrix(1 0 0 1 0 0)" id="Layer_1"  >
<path style="stroke: none; stroke-width: 1; stroke-dasharray: none; stroke-linecap: butt; stroke-dashoffset: 0; stroke-linejoin: miter; stroke-miterlimit: 4; fill: rgb(255,49,152); fill-rule: nonzero; opacity: 1;"  paint-order="stroke"  transform=" translate(-100, -100)" d="M 200 100 C 200 155.22847498307934 155.22847498307934 200 100 200 C 44.771525016920656 200 0 155.22847498307934 0 100 C 0 44.771525016920656 44.771525016920656 0 100 0 C 155.22847498307934 0 200 44.77152501692063 200 99.99999999999997 Z" stroke-linecap="round" />
</g>
</g>
</g>
<g transform="matrix(0 0.08140484011279875 -0.6320215173522309 0 35.6118959899639 994.7150464418896)" id="shape-6-logo"  >
<g style=""  paint-order="stroke"   >
		<g transform="matrix(1 0 0 1 0 0)" id="Layer_1"  >
<rect style="stroke: none; stroke-width: 1; stroke-dasharray: none; stroke-linecap: butt; stroke-dashoffset: 0; stroke-linejoin: miter; stroke-miterlimit: 4; fill: rgb(255,49,152); fill-rule: nonzero; opacity: 1;"  paint-order="stroke"  x="-100" y="-100" rx="0" ry="0" width="200" height="200" />
</g>
</g>
</g>
<g transform="matrix(0 -0.08042263545773602 0.8875971581538135 0 31.034075367488867 944.8434460060872)" id="shape-7-logo"  >
<g style=""  paint-order="stroke"   >
		<g transform="matrix(1 0 0 1 0 0)" id="Layer_1"  >
<rect style="stroke: none; stroke-width: 1; stroke-dasharray: none; stroke-linecap: butt; stroke-dashoffset: 0; stroke-linejoin: miter; stroke-miterlimit: 4; fill: rgb(255,49,152); fill-rule: nonzero; opacity: 1;"  paint-order="stroke"  x="-100" y="-100" rx="0" ry="0" width="200" height="200" />
</g>
</g>
</g>
<g transform="matrix(-0.06985129393498742 -0.040328663356608695 0.17126572808799542 -0.29664094264368396 173.95972464223505 929.7132305914145)" id="shape-8-logo"  >
<g style=""  paint-order="stroke"   >
		<g transform="matrix(1 0 0 1 0 0)" id="Layer_1"  >
<rect style="stroke: none; stroke-width: 1; stroke-dasharray: none; stroke-linecap: butt; stroke-dashoffset: 0; stroke-linejoin: miter; stroke-miterlimit: 4; fill: rgb(255,49,152); fill-rule: nonzero; opacity: 1;"  paint-order="stroke"  x="-100" y="-100" rx="0" ry="0" width="200" height="200" />
</g>
</g>
</g>
<g transform="matrix(0 0.08036690166760248 -0.621628760676177 0 20.131271633774134 883.0050368433137)" id="shape-9-logo"  >
<g style=""  paint-order="stroke"   >
		<g transform="matrix(1 0 0 1 0 0)" id="Layer_1"  >
<rect style="stroke: none; stroke-width: 1; stroke-dasharray: none; stroke-linecap: butt; stroke-dashoffset: 0; stroke-linejoin: miter; stroke-miterlimit: 4; fill: rgb(255,49,152); fill-rule: nonzero; opacity: 1;"  paint-order="stroke"  x="-100" y="-100" rx="0" ry="0" width="200" height="200" />
</g>
</g>
</g>
<g transform="matrix(0 -0.6511307599563265 0.08386160791335476 0 157.46184815414165 1020.2028873320689)" id="shape-10-logo"  >
<g style=""  paint-order="stroke"   >
		<g transform="matrix(1 0 0 1 0 0)" id="Layer_1"  >
<rect style="stroke: none; stroke-width: 1; stroke-dasharray: none; stroke-linecap: butt; stroke-dashoffset: 0; stroke-linejoin: miter; stroke-miterlimit: 4; fill: rgb(255,49,152); fill-rule: nonzero; opacity: 1;"  paint-order="stroke"  x="-100" y="-100" rx="0" ry="0" width="200" height="200" />
</g>
</g>
</g>
<g transform="matrix(0.07435645668933383 0 0 0.35163754301895184 75.27662688243674 853.4363251910231)" id="shape-11-logo"  >
<g style=""  paint-order="stroke"   >
		<g transform="matrix(1 0 0 1 0 0)" id="Layer_1"  >
<rect style="stroke: none; stroke-width: 1; stroke-dasharray: none; stroke-linecap: butt; stroke-dashoffset: 0; stroke-linejoin: miter; stroke-miterlimit: 4; fill: rgb(255,49,152); fill-rule: nonzero; opacity: 1;"  paint-order="stroke"  x="-100" y="-100" rx="0" ry="0" width="200" height="200" />
</g>
</g>
</g>
<g transform="matrix(0.39014938939418153 0 0 0.07528522955019004 225.0806617497285 904.196166882117)" id="shape-12-logo"  >
<g style=""  paint-order="stroke"   >
		<g transform="matrix(1 0 0 1 0 0)" id="Layer_1"  >
<rect style="stroke: none; stroke-width: 1; stroke-dasharray: none; stroke-linecap: butt; stroke-dashoffset: 0; stroke-linejoin: miter; stroke-miterlimit: 4; fill: rgb(255,49,152); fill-rule: nonzero; opacity: 1;"  paint-order="stroke"  x="-100" y="-100" rx="0" ry="0" width="200" height="200" />
</g>
</g>
</g>
<g transform="matrix(0.08137672977936272 0 0 0.48198353929097615 222.75404289839042 1037.5470643167853)" id="shape-13-logo"  >
<g style=""  paint-order="stroke"   >
		<g transform="matrix(1 0 0 1 0 0)" id="Layer_1"  >
<rect style="stroke: none; stroke-width: 1; stroke-dasharray: none; stroke-linecap: butt; stroke-dashoffset: 0; stroke-linejoin: miter; stroke-miterlimit: 4; fill: rgb(255,49,152); fill-rule: nonzero; opacity: 1;"  paint-order="stroke"  x="-100" y="-100" rx="0" ry="0" width="200" height="200" />
</g>
</g>
</g>
<g transform="matrix(0.4871277776480489 0 0 0.07960606580732696 154.8839917554597 855.6176240296103)" id="shape-14-logo"  >
<g style=""  paint-order="stroke"   >
		<g transform="matrix(1 0 0 1 0 0)" id="Layer_1"  >
<rect style="stroke: none; stroke-width: 1; stroke-dasharray: none; stroke-linecap: butt; stroke-dashoffset: 0; stroke-linejoin: miter; stroke-miterlimit: 4; fill: rgb(255,49,152); fill-rule: nonzero; opacity: 1;"  paint-order="stroke"  x="-100" y="-100" rx="0" ry="0" width="200" height="200" />
</g>
</g>
</g>
<g transform="matrix(0.07977442539430037 0 0 0.4980342277963423 113.35844686936468 901.307748074169)" id="shape-15-logo"  >
<g style=""  paint-order="stroke"   >
		<g transform="matrix(1 0 0 1 0 0)" id="Layer_1"  >
<rect style="stroke: none; stroke-width: 1; stroke-dasharray: none; stroke-linecap: butt; stroke-dashoffset: 0; stroke-linejoin: miter; stroke-miterlimit: 4; fill: rgb(255,49,152); fill-rule: nonzero; opacity: 1;"  paint-order="stroke"  x="-100" y="-100" rx="0" ry="0" width="200" height="200" />
</g>
</g>
</g>
<g transform="matrix(0 0.0949532980458217 -0.09495329804582171 0 485.51208489117664 148.12884519166204)" id="shape-16-logo"  >
<g style=""  paint-order="stroke"   >
		<g transform="matrix(1 0 0 1 0 0)" id="Layer_1"  >
<path style="stroke: none; stroke-width: 1; stroke-dasharray: none; stroke-linecap: butt; stroke-dashoffset: 0; stroke-linejoin: miter; stroke-miterlimit: 4; fill: rgb(255,49,152); fill-rule: nonzero; opacity: 1;"  paint-order="stroke"  transform=" translate(-100, -100)" d="M 200 100 C 200 155.22847498307934 155.22847498307934 200 100 200 C 44.771525016920656 200 0 155.22847498307934 0 100 C 0 44.771525016920656 44.771525016920656 0 100 0 C 155.22847498307934 0 200 44.77152501692063 200 99.99999999999997 Z" stroke-linecap="round" />
</g>
</g>
</g>
<g transform="matrix(0 0.0949532980458217 -0.09495329804582171 0 540.5961198418743 117.4133899427639)" id="shape-17-logo"  >
<g style=""  paint-order="stroke"   >
		<g transform="matrix(1 0 0 1 0 0)" id="Layer_1"  >
<path style="stroke: none; stroke-width: 1; stroke-dasharray: none; stroke-linecap: butt; stroke-dashoffset: 0; stroke-linejoin: miter; stroke-miterlimit: 4; fill: rgb(255,49,152); fill-rule: nonzero; opacity: 1;"  paint-order="stroke"  transform=" translate(-100, -100)" d="M 200 100 C 200 155.22847498307934 155.22847498307934 200 100 200 C 44.771525016920656 200 0 155.22847498307934 0 100 C 0 44.771525016920656 44.771525016920656 0 100 0 C 155.22847498307934 0 200 44.77152501692063 200 99.99999999999997 Z" stroke-linecap="round" />
</g>
</g>
</g>
<g transform="matrix(0 0.0949532980458217 -0.09495329804582171 0 373.11854249991586 124.43486641255674)" id="shape-18-logo"  >
<g style=""  paint-order="stroke"   >
		<g transform="matrix(1 0 0 1 0 0)" id="Layer_1"  >
<path style="stroke: none; stroke-width: 1; stroke-dasharray: none; stroke-linecap: butt; stroke-dashoffset: 0; stroke-linejoin: miter; stroke-miterlimit: 4; fill: rgb(255,49,152); fill-rule: nonzero; opacity: 1;"  paint-order="stroke"  transform=" translate(-100, -100)" d="M 200 100 C 200 155.22847498307934 155.22847498307934 200 100 200 C 44.771525016920656 200 0 155.22847498307934 0 100 C 0 44.771525016920656 44.771525016920656 0 100 0 C 155.22847498307934 0 200 44.77152501692063 200 99.99999999999997 Z" stroke-linecap="round" />
</g>
</g>
</g>
<g transform="matrix(0 0.07370714973680782 -1.4979207479811107 0 630.0209756543418 211.202283962538)" id="shape-19-logo"  >
<g style=""  paint-order="stroke"   >
		<g transform="matrix(1 0 0 1 0 0)" id="Layer_1"  >
<rect style="stroke: none; stroke-width: 1; stroke-dasharray: none; stroke-linecap: butt; stroke-dashoffset: 0; stroke-linejoin: miter; stroke-miterlimit: 4; fill: rgb(255,49,152); fill-rule: nonzero; opacity: 1;"  paint-order="stroke"  x="-100" y="-100" rx="0" ry="0" width="200" height="200" />
</g>
</g>
</g>
<g transform="matrix(0 0.07510599624381101 -0.9728714175565547 0 658.3201947701355 118.73316623717648)" id="shape-20-logo"  >
<g style=""  paint-order="stroke"   >
		<g transform="matrix(1 0 0 1 0 0)" id="Layer_1"  >
<rect style="stroke: none; stroke-width: 1; stroke-dasharray: none; stroke-linecap: butt; stroke-dashoffset: 0; stroke-linejoin: miter; stroke-miterlimit: 4; fill: rgb(255,49,152); fill-rule: nonzero; opacity: 1;"  paint-order="stroke"  x="-100" y="-100" rx="0" ry="0" width="200" height="200" />
</g>
</g>
</g>
<g transform="matrix(0 0.07165735530232366 -1.1799416511461087 0 598.315970567804 57.63116978661219)" id="shape-21-logo"  >
<g style=""  paint-order="stroke"   >
		<g transform="matrix(1 0 0 1 0 0)" id="Layer_1"  >
<rect style="stroke: none; stroke-width: 1; stroke-dasharray: none; stroke-linecap: butt; stroke-dashoffset: 0; stroke-linejoin: miter; stroke-miterlimit: 4; fill: rgb(255,49,152); fill-rule: nonzero; opacity: 1;"  paint-order="stroke"  x="-100" y="-100" rx="0" ry="0" width="200" height="200" />
</g>
</g>
</g>
<g transform="matrix(0 0.36830920380636406 -0.0698970683581187 0 487.14891495576046 90.06206227729211)" id="shape-22-logo"  >
<g style=""  paint-order="stroke"   >
		<g transform="matrix(1 0 0 1 0 0)" id="Layer_1"  >
<rect style="stroke: none; stroke-width: 1; stroke-dasharray: none; stroke-linecap: butt; stroke-dashoffset: 0; stroke-linejoin: miter; stroke-miterlimit: 4; fill: rgb(255,49,152); fill-rule: nonzero; opacity: 1;"  paint-order="stroke"  x="-100" y="-100" rx="0" ry="0" width="200" height="200" />
</g>
</g>
</g>
<g transform="matrix(-0.28431834410696205 -0.2843183441069621 0.05009499107735401 -0.050094991077354004 455.317444511042 185.5028038640063)" id="shape-23-logo"  >
<g style=""  paint-order="stroke"   >
		<g transform="matrix(1 0 0 1 0 0)" id="Layer_1"  >
<rect style="stroke: none; stroke-width: 1; stroke-dasharray: none; stroke-linecap: butt; stroke-dashoffset: 0; stroke-linejoin: miter; stroke-miterlimit: 4; fill: rgb(255,49,152); fill-rule: nonzero; opacity: 1;"  paint-order="stroke"  x="-100" y="-100" rx="0" ry="0" width="200" height="200" />
</g>
</g>
</g>
<g transform="matrix(0 0.39766575040163804 -0.07091336175103852 0 428.1142712491431 121.88356257395287)" id="shape-24-logo"  >
<g style=""  paint-order="stroke"   >
		<g transform="matrix(1 0 0 1 0 0)" id="Layer_1"  >
<rect style="stroke: none; stroke-width: 1; stroke-dasharray: none; stroke-linecap: butt; stroke-dashoffset: 0; stroke-linejoin: miter; stroke-miterlimit: 4; fill: rgb(255,49,152); fill-rule: nonzero; opacity: 1;"  paint-order="stroke"  x="-100" y="-100" rx="0" ry="0" width="200" height="200" />
</g>
</g>
</g>
<g transform="matrix(0 0.09502776373921659 -0.09502776373921658 0 430.2364478659171 63.764456174399754)" id="shape-25-logo"  >
<g style=""  paint-order="stroke"   >
		<g transform="matrix(1 0 0 1 0 0)" id="Layer_1"  >
<path style="stroke: none; stroke-width: 1; stroke-dasharray: none; stroke-linecap: butt; stroke-dashoffset: 0; stroke-linejoin: miter; stroke-miterlimit: 4; fill: rgb(255,49,152); fill-rule: nonzero; opacity: 1;"  paint-order="stroke"  transform=" translate(-100, -100)" d="M 200 100 C 200 155.22847498307934 155.22847498307934 200 100 200 C 44.771525016920656 200 0 155.22847498307934 0 100 C 0 44.771525016920656 44.771525016920656 0 100 0 C 155.22847498307934 0 200 44.77152501692063 200 99.99999999999997 Z" stroke-linecap="round" />
</g>
</g>
</g>
<g transform="matrix(0 0.575988256321269 -0.07276894223379425 0 373.2485562193238 46.34424387800965)" id="shape-26-logo"  >
<g style=""  paint-order="stroke"   >
		<g transform="matrix(1 0 0 1 0 0)" id="Layer_1"  >
<rect style="stroke: none; stroke-width: 1; stroke-dasharray: none; stroke-linecap: butt; stroke-dashoffset: 0; stroke-linejoin: miter; stroke-miterlimit: 4; fill: rgb(255,49,152); fill-rule: nonzero; opacity: 1;"  paint-order="stroke"  x="-100" y="-100" rx="0" ry="0" width="200" height="200" />
</g>
</g>
</g>
<g transform="matrix(0.9343698498177934 0 0 0.9343698498177934 425.6375186916104 957.0693534548839)" id="text-logo-path"  >
<path style="stroke: none; stroke-width: 0; stroke-dasharray: none; stroke-linecap: butt; stroke-dashoffset: 0; stroke-linejoin: miter; stroke-miterlimit: 4; fill: rgb(255,49,152); fill-rule: nonzero; opacity: 1;"  paint-order="stroke"  transform=" translate(-161.485, 23.24)" d="M 0.43 -4.61 L 0.43 -4.61 L 5.35 -9.97 Q 6.43 -8.89 8.61 -8.17 Q 10.8 -7.44 12.98 -7.44 L 12.98 -7.44 Q 16.37 -7.44 17.89 -8.8 Q 19.41 -10.15 19.41 -13.87 L 19.41 -13.87 L 19.41 -44.85 L 28.15 -44.85 L 28.15 -16 Q 28.15 -12.27 27.47 -9.44 Q 26.79 -6.61 25.58 -4.75 Q 24.36 -2.89 22.52 -1.74 Q 20.67 -0.58 18.52 -0.11 Q 16.37 0.37 13.66 0.37 L 13.66 0.37 Q 9.14 0.37 6.08 -0.83 Q 3.01 -2.03 0.43 -4.61 Z M 32.73 -17.69 L 32.73 -17.69 Q 32.73 -19.41 32.76 -20.64 Q 32.79 -21.87 32.93 -23.5 Q 33.07 -25.13 33.3 -26.3 Q 33.53 -27.47 33.96 -28.82 Q 34.39 -30.18 35.01 -31.12 Q 35.62 -32.05 36.53 -32.99 Q 37.44 -33.93 38.59 -34.48 Q 39.74 -35.04 41.3 -35.38 Q 42.85 -35.71 44.73 -35.71 L 44.73 -35.71 L 53.34 -35.71 L 61.52 -36.24 L 61.52 0 L 56.05 0 L 53.53 -4.34 L 44.79 0.37 Q 41.84 0.37 39.67 -0.55 Q 37.5 -1.48 36.18 -3 Q 34.85 -4.52 34.07 -6.92 Q 33.28 -9.32 33.01 -11.84 Q 32.73 -14.37 32.73 -17.69 Z M 40.94 -17.69 L 40.94 -17.69 Q 40.94 -12.52 42.24 -10.38 Q 43.53 -8.24 47.1 -8.24 L 47.1 -8.24 L 53.34 -11.47 L 53.34 -28.36 L 47.1 -28.36 Q 43.62 -28.36 42.28 -25.7 Q 40.94 -23.04 40.94 -17.69 Z M 67.74 -18.15 L 67.74 -18.15 Q 67.74 -28.58 71.46 -32.45 L 71.46 -32.45 Q 73.09 -34.21 75.95 -35.35 Q 78.81 -36.48 82.26 -36.48 L 82.26 -36.48 Q 89.09 -36.48 92.59 -33.1 Q 96.1 -29.72 96.1 -23.63 L 96.1 -23.63 L 88.66 -23.63 Q 88.66 -26.42 87.29 -27.76 Q 85.92 -29.1 82.26 -29.1 L 82.26 -29.1 Q 80.63 -29.1 79.47 -28.62 Q 78.32 -28.15 77.64 -27.39 Q 76.97 -26.64 76.58 -25.38 Q 76.2 -24.12 76.07 -22.84 Q 75.95 -21.56 75.95 -19.78 L 75.95 -19.78 L 75.95 -16.52 Q 75.95 -14.73 76.06 -13.46 Q 76.17 -12.18 76.54 -10.78 Q 76.9 -9.38 77.57 -8.51 Q 78.23 -7.63 79.41 -7.06 Q 80.6 -6.49 82.26 -6.49 L 82.26 -6.49 Q 83.76 -6.49 84.84 -6.68 Q 85.92 -6.86 86.63 -7.31 Q 87.33 -7.75 87.76 -8.23 Q 88.19 -8.71 88.41 -9.58 Q 88.62 -10.46 88.7 -11.2 Q 88.78 -11.94 88.81 -13.17 L 88.81 -13.17 L 96.22 -13.23 Q 96.19 -12.74 96.1 -11.38 Q 96.01 -10.03 95.98 -9.6 Q 95.95 -9.17 95.84 -8.14 Q 95.73 -7.11 95.58 -6.64 Q 95.42 -6.18 95.18 -5.44 Q 94.93 -4.71 94.56 -4.18 Q 94.19 -3.66 93.7 -3.14 L 93.7 -3.14 Q 92.1 -1.45 88.93 -0.28 Q 85.76 0.89 82.26 0.89 L 82.26 0.89 Q 78.81 0.89 75.95 -0.25 Q 73.09 -1.38 71.46 -3.14 L 71.46 -3.14 Q 67.74 -7.01 67.74 -18.15 Z M 111.14 0 L 102.93 0 L 102.93 -47.37 L 111.14 -47.37 L 111.14 -17.44 L 122.59 -34.51 L 131.84 -34.51 L 120.06 -18.4 L 134 0 L 124.19 0 L 114.71 -12.74 L 111.14 -7.63 L 111.14 0 Z M 153.5 -11.84 L 153.5 -11.84 L 153.5 -44.85 L 183.03 -44.85 L 183.03 -37.04 L 162.27 -37.04 L 162.27 -26.52 L 176.82 -26.52 L 176.17 -18.7 L 162.27 -18.7 L 162.27 -12.49 Q 162.27 -9.81 163.47 -8.81 Q 164.67 -7.81 167.81 -7.81 L 167.81 -7.81 L 183.03 -7.81 L 183.03 0 L 167.16 0 Q 159.59 0 156.55 -2.6 Q 153.5 -5.2 153.5 -11.84 Z M 196.72 0 L 186.63 -35.96 L 195.34 -35.96 L 200.63 -12.55 L 206.1 -31.81 Q 207.03 -35.96 210.38 -35.96 L 210.38 -35.96 Q 211.98 -35.96 212.9 -34.98 Q 213.82 -33.99 214.47 -31.81 L 214.47 -31.81 L 220.04 -12.55 L 225.33 -35.96 L 233.94 -35.96 L 223.95 0 L 217.18 0 L 210.32 -21.87 L 203.46 0 L 196.72 0 Z M 236.65 -19.29 L 236.65 -19.29 Q 236.65 -28.18 240.5 -32.3 Q 244.34 -36.42 252.22 -36.42 L 252.22 -36.42 Q 255.26 -36.42 257.63 -35.64 Q 260 -34.85 261.54 -33.5 Q 263.07 -32.15 264.06 -30.18 Q 265.04 -28.21 265.46 -26.02 Q 265.87 -23.84 265.87 -21.23 L 265.87 -21.23 Q 265.87 -19.56 265.75 -16.06 L 265.75 -16.06 L 244.77 -16.06 Q 244.77 -13.63 245.06 -12.03 Q 245.36 -10.43 246.16 -9.12 Q 246.96 -7.81 248.52 -7.21 Q 250.09 -6.61 252.52 -6.61 L 252.52 -6.61 Q 253.85 -6.61 254.91 -7.04 Q 255.97 -7.48 256.6 -8.11 Q 257.23 -8.74 257.66 -9.54 Q 258.09 -10.34 258.26 -11 Q 258.43 -11.66 258.43 -12.21 L 258.43 -12.21 L 265.81 -12.21 Q 265.81 -8.8 264.83 -6.24 Q 263.84 -3.69 262.01 -2.17 Q 260.18 -0.65 257.8 0.09 Q 255.41 0.83 252.46 0.83 L 252.46 0.83 Q 249.02 0.83 246.54 0.25 Q 244.06 -0.34 242.13 -1.69 Q 240.19 -3.05 239.02 -5.37 Q 237.85 -7.69 237.25 -11.12 Q 236.65 -14.55 236.65 -19.29 Z M 244.96 -21.69 L 244.96 -21.69 L 258.43 -21.69 Q 258.43 -25.87 256.84 -27.75 Q 255.26 -29.62 251.97 -29.62 L 251.97 -29.62 Q 248.8 -29.62 246.88 -27.7 Q 244.96 -25.78 244.96 -21.69 Z M 280.24 0 L 272.06 0 L 272.06 -35.96 L 278.15 -35.96 L 280.05 -32.82 L 288.73 -36.42 Q 289.68 -36.64 290.64 -36.54 Q 291.59 -36.45 292.39 -35.84 L 292.39 -35.84 L 290.11 -27.78 Q 289.28 -28.15 288.18 -28.15 L 288.18 -28.15 Q 287.19 -28.18 285.93 -27.87 L 285.93 -27.87 Q 283.28 -27.25 280.24 -25.44 L 280.24 -25.44 L 280.24 0 Z M 295.34 -10.21 L 295.34 -10.21 L 295.34 -10.95 L 302.76 -10.95 Q 302.76 -8.06 304.26 -7 Q 305.77 -5.94 309.49 -5.94 L 309.49 -5.94 Q 311.65 -5.94 313.09 -6.78 Q 314.54 -7.63 314.54 -9.57 L 314.54 -9.57 Q 314.54 -10.43 314.43 -11.03 Q 314.32 -11.63 313.97 -12.38 Q 313.62 -13.14 312.8 -13.64 Q 311.99 -14.15 310.69 -14.37 L 310.69 -14.37 L 304.33 -15.44 Q 296.02 -16.8 296.02 -25.84 L 296.02 -25.84 Q 296.02 -30.88 299.7 -33.68 Q 303.37 -36.48 309.06 -36.48 L 309.06 -36.48 Q 311.03 -36.48 312.74 -36.22 Q 314.45 -35.96 316.22 -35.21 Q 317.98 -34.45 319.2 -33.25 Q 320.41 -32.05 321.2 -30.02 Q 321.98 -27.99 321.98 -25.32 L 321.98 -25.32 L 321.98 -24.52 L 314.85 -24.52 Q 314.72 -27.47 313.26 -28.55 Q 311.8 -29.62 309.12 -29.62 L 309.12 -29.62 Q 306.63 -29.62 305.29 -28.59 Q 303.96 -27.56 303.96 -26.27 L 303.96 -26.27 Q 303.96 -22.67 306.85 -22.18 L 306.85 -22.18 L 314.48 -20.79 Q 322.54 -19.29 322.54 -9.97 L 322.54 -9.97 L 322.54 -9.01 Q 322.35 -6.58 321.24 -4.72 Q 320.14 -2.86 318.32 -1.74 Q 316.51 -0.62 314.29 -0.06 Q 312.08 0.49 309.49 0.49 L 309.49 0.49 Q 307.16 0.49 305.31 0.28 Q 303.46 0.06 301.53 -0.62 Q 299.59 -1.29 298.3 -2.43 Q 297 -3.57 296.17 -5.55 Q 295.34 -7.54 295.34 -10.21 Z" stroke-linecap="round" />
</g>
<g transform="matrix(0.9343698498177934 0 0 0.9343698498177934 459.4907968163546 1008.0908230108644)" id="tagline-bc1c2edf-6e98-4984-84c0-e5598949bc19-logo-path"  >
<path style="stroke: none; stroke-width: 0; stroke-dasharray: none; stroke-linecap: butt; stroke-dashoffset: 0; stroke-linejoin: miter; stroke-miterlimit: 4; fill: rgb(255,49,152); fill-rule: nonzero; opacity: 1;"  paint-order="stroke"  transform=" translate(-133.58499999999998, 14.945000000000002)" d="M 7.82 0 L 4.6 0 L 4.6 -29.9 L 17.25 -29.9 L 17.25 -27.13 L 7.82 -27.13 L 7.82 -16.55 L 15.41 -16.55 L 15.41 -13.79 L 7.82 -13.79 L 7.82 0 Z M 22.98 -5.75 L 22.98 -5.75 L 22.98 -24.15 Q 22.98 -27.22 24.93 -28.91 Q 26.89 -30.59 30.77 -30.59 Q 34.66 -30.59 36.63 -28.91 Q 38.61 -27.22 38.61 -24.15 L 38.61 -24.15 L 38.61 -5.75 Q 38.61 -2.67 36.66 -0.99 Q 34.7 0.7 30.82 0.7 Q 26.93 0.7 24.95 -0.99 Q 22.98 -2.67 22.98 -5.75 Z M 26.19 -24.15 L 26.19 -5.75 Q 26.19 -2.07 30.79 -2.07 Q 35.4 -2.07 35.4 -5.75 L 35.4 -5.75 L 35.4 -24.15 Q 35.4 -27.83 30.79 -27.83 Q 26.19 -27.83 26.19 -24.15 L 26.19 -24.15 Z M 46.65 -5.75 L 46.65 -5.75 L 46.65 -29.9 L 49.89 -29.9 L 49.89 -5.75 Q 49.89 -4 50.64 -3.03 Q 51.39 -2.07 53.41 -2.07 Q 55.43 -2.07 57.14 -3.63 Q 58.85 -5.19 58.85 -6.67 L 58.85 -6.67 L 58.85 -29.9 L 62.06 -29.9 L 62.06 0 L 60.69 0 L 59.5 -2.94 Q 58.49 -1.28 56.89 -0.29 Q 55.3 0.7 53.41 0.7 L 53.41 0.7 Q 46.65 0.7 46.65 -5.75 Z M 74.48 0 L 71.27 0 L 71.27 -29.9 L 72.64 -29.9 L 73.78 -26.91 Q 75.99 -30.59 79.92 -30.59 L 79.92 -30.59 Q 86.68 -30.59 86.68 -24.15 L 86.68 -24.15 L 86.68 0 L 83.46 0 L 83.46 -24.15 Q 83.46 -25.9 82.7 -26.86 Q 81.94 -27.83 79.92 -27.83 Q 77.89 -27.83 76.19 -26.27 Q 74.48 -24.71 74.48 -23.22 L 74.48 -23.22 L 74.48 0 Z M 102.83 0 L 95.41 0 L 95.41 -29.9 L 102.83 -29.9 Q 106.42 -29.9 108.27 -28.2 Q 110.13 -26.5 110.13 -23.45 L 110.13 -23.45 L 110.13 -6.45 Q 110.13 -3.37 108.3 -1.68 Q 106.46 0 102.83 0 L 102.83 0 Z M 98.63 -27.13 L 98.63 -2.76 L 102.83 -2.76 Q 106.91 -2.76 106.91 -6.45 L 106.91 -6.45 L 106.91 -23.45 Q 106.91 -25.2 105.86 -26.17 Q 104.8 -27.13 102.83 -27.13 L 102.83 -27.13 L 98.63 -27.13 Z M 117.94 -5.75 L 117.94 -5.75 L 117.94 -24.15 Q 117.94 -27.22 119.83 -28.91 Q 121.72 -30.59 125.49 -30.59 Q 129.26 -30.59 131.19 -28.91 Q 133.13 -27.22 133.13 -24.15 L 133.13 -24.15 L 133.13 -14.04 L 121.15 -14.04 L 121.15 -5.75 Q 121.15 -2.07 125.53 -2.07 Q 129.91 -2.07 129.91 -5.75 L 129.91 -5.75 L 129.91 -8.29 L 133.13 -8.29 L 133.13 -5.75 Q 133.13 -2.67 131.24 -0.99 Q 129.35 0.7 125.58 0.7 Q 121.81 0.7 119.87 -0.99 Q 117.94 -2.67 117.94 -5.75 Z M 121.15 -24.15 L 121.15 -16.8 L 129.91 -16.8 L 129.91 -24.15 Q 129.91 -27.83 125.53 -27.83 Q 121.15 -27.83 121.15 -24.15 L 121.15 -24.15 Z M 144.85 0 L 141.64 0 L 141.64 -29.9 L 143.01 -29.9 L 144.36 -26.5 Q 145.84 -30.59 149.05 -30.59 L 149.05 -30.59 Q 154.53 -30.59 154.51 -24.62 L 154.51 -24.62 L 154.51 -21.63 L 151.43 -21.63 L 151.43 -24.8 Q 151.43 -27.83 148.89 -27.83 L 148.89 -27.83 Q 147.37 -27.83 146.11 -26.08 Q 144.85 -24.33 144.85 -21.02 L 144.85 -21.02 L 144.85 0 Z M 169.22 -5.75 L 169.22 -5.75 L 169.22 -9.88 Q 169.22 -14.8 172.54 -16.06 L 172.54 -16.06 Q 170.16 -19.79 170.14 -21.85 L 170.14 -21.85 L 170.14 -24.15 Q 170.14 -27.22 172.05 -28.91 Q 173.96 -30.59 177.82 -30.59 L 177.82 -30.59 Q 185.24 -30.59 185.24 -24.15 L 185.24 -24.15 L 185.24 -20.24 L 182.02 -20.24 L 182.02 -24.33 Q 182.02 -25.99 180.93 -26.91 Q 179.84 -27.83 177.69 -27.83 Q 175.53 -27.83 174.45 -26.91 Q 173.38 -25.99 173.38 -24.33 L 173.38 -24.33 L 173.38 -21.85 Q 173.38 -20.19 175.89 -16.55 L 175.89 -16.55 L 188.49 -16.55 L 188.49 -13.79 L 184.79 -13.79 L 184.79 -5.75 Q 184.79 0.7 177 0.7 Q 169.22 0.7 169.22 -5.75 Z M 172.46 -9.88 L 172.46 -5.57 Q 172.46 -3.91 173.6 -2.99 Q 174.75 -2.07 177 -2.07 Q 179.26 -2.07 180.41 -2.99 Q 181.55 -3.91 181.55 -5.57 L 181.55 -5.57 L 181.55 -13.79 L 175.62 -13.79 Q 172.46 -13.79 172.46 -9.88 L 172.46 -9.88 Z M 203.95 -5.75 L 203.95 -5.75 L 203.95 -24.15 Q 203.95 -27.22 205.83 -28.91 Q 207.72 -30.59 211.49 -30.59 Q 215.27 -30.59 217.2 -28.91 Q 219.13 -27.22 219.13 -24.15 L 219.13 -24.15 L 219.13 -19.79 L 215.92 -19.79 L 215.92 -24.15 Q 215.92 -27.83 211.54 -27.83 Q 207.16 -27.83 207.16 -24.15 L 207.16 -24.15 L 207.16 -5.75 Q 207.16 -2.07 211.54 -2.07 Q 215.92 -2.07 215.92 -5.75 L 215.92 -5.75 L 215.92 -8.29 L 219.13 -8.29 L 219.13 -5.75 Q 219.13 -2.67 217.24 -0.99 Q 215.36 0.7 211.58 0.7 Q 207.81 0.7 205.88 -0.99 Q 203.95 -2.67 203.95 -5.75 Z M 240.74 0 L 227.17 0 L 227.17 -29.9 L 240.26 -29.9 L 240.26 -27.13 L 230.38 -27.13 L 230.38 -16.55 L 238.45 -16.55 L 238.45 -13.79 L 230.38 -13.79 L 230.38 -2.76 L 240.74 -2.76 L 240.74 0 Z M 246.94 -5.75 L 246.94 -5.75 L 246.94 -24.15 Q 246.94 -27.22 248.89 -28.91 Q 250.84 -30.59 254.73 -30.59 Q 258.62 -30.59 260.59 -28.91 Q 262.57 -27.22 262.57 -24.15 L 262.57 -24.15 L 262.57 -5.75 Q 262.57 -2.67 260.61 -0.99 Q 258.66 0.7 254.77 0.7 Q 250.89 0.7 248.91 -0.99 Q 246.94 -2.67 246.94 -5.75 Z M 250.15 -24.15 L 250.15 -5.75 Q 250.15 -2.07 254.75 -2.07 Q 259.36 -2.07 259.36 -5.75 L 259.36 -5.75 L 259.36 -24.15 Q 259.36 -27.83 254.75 -27.83 Q 250.15 -27.83 250.15 -24.15 L 250.15 -24.15 Z" stroke-linecap="round" />
</g>
<g transform="matrix(0.8049955629199452 0 0 0.8049955629199451 317.7174199247273 505.6350578431752)" id="maker-logo"  >
<g style=""  paint-order="stroke"   >
		<g transform="matrix(1 0 0 1 0 0)" id="background-logo"  >
<rect style="stroke: none; stroke-width: 0; stroke-dasharray: none; stroke-linecap: butt; stroke-dashoffset: 0; stroke-linejoin: miter; stroke-miterlimit: 10; fill: rgb(76,6,146); fill-opacity: 0; fill-rule: nonzero; opacity: 0; visibility: hidden;"  paint-order="stroke"  x="-325" y="-260" rx="0" ry="0" width="650" height="520" />
</g>
		<g transform="matrix(1 0 0 1 109.6490104602217 -16.980349664473138)" id="text-logo-path"  >
<path style="stroke: none; stroke-width: 1; stroke-dasharray: none; stroke-linecap: butt; stroke-dashoffset: 0; stroke-linejoin: miter; stroke-miterlimit: 4; fill: rgb(255,49,152); fill-rule: nonzero; opacity: 1;"  paint-order="stroke"  transform=" translate(-155.17, 28.925)" d="M 18.51 0 L 3.65 0 Q 3.32 0 3.32 -0.42 L 3.32 -0.42 L 3.49 -57.44 Q 3.49 -57.77 3.82 -57.77 L 3.82 -57.77 L 19.75 -57.77 Q 24.49 -57.77 28.22 -55.49 Q 31.96 -53.2 34.11 -49.47 Q 36.27 -45.73 36.27 -41.33 L 36.27 -41.33 Q 36.27 -37.77 34.65 -34.69 Q 33.03 -31.62 30.79 -29.71 L 30.79 -29.71 Q 33.2 -27.31 34.53 -24.15 Q 35.86 -21 35.86 -17.51 L 35.86 -17.51 Q 35.86 -12.7 33.53 -8.71 Q 31.21 -4.73 27.27 -2.37 Q 23.32 0 18.51 0 L 18.51 0 Z M 13.45 -47.89 L 13.45 -34.86 L 19.75 -34.86 Q 22.66 -34.86 24.44 -36.89 Q 26.23 -38.93 26.23 -41.33 L 26.23 -41.33 Q 26.23 -43.99 24.32 -45.94 Q 22.41 -47.89 19.75 -47.89 L 19.75 -47.89 L 13.45 -47.89 Z M 13.45 -24.82 L 13.36 -10.13 L 18.51 -10.13 Q 21.5 -10.13 23.66 -12.33 Q 25.81 -14.53 25.81 -17.51 L 25.81 -17.51 Q 25.81 -20.5 23.66 -22.66 Q 21.5 -24.82 18.51 -24.82 L 18.51 -24.82 L 13.45 -24.82 Z M 68.97 0 L 42.16 0 Q 41.83 0 41.83 -0.42 L 41.83 -0.42 L 41.91 -57.35 Q 41.91 -57.77 42.33 -57.77 L 42.33 -57.77 L 51.54 -57.77 Q 51.96 -57.77 51.96 -57.35 L 51.96 -57.35 L 51.88 -10.21 L 68.97 -10.21 Q 69.39 -10.21 69.39 -9.79 L 69.39 -9.79 L 69.39 -0.42 Q 69.39 0 68.97 0 L 68.97 0 Z M 88.98 0.83 L 88.98 0.83 Q 84.49 0.83 80.8 -1.45 Q 77.11 -3.74 74.87 -7.51 Q 72.62 -11.29 72.62 -15.85 L 72.62 -15.85 L 72.71 -42.16 Q 72.71 -46.73 74.91 -50.46 Q 77.11 -54.2 80.84 -56.44 Q 84.58 -58.68 88.98 -58.68 L 88.98 -58.68 Q 93.46 -58.68 97.11 -56.44 Q 100.76 -54.2 102.96 -50.46 Q 105.16 -46.73 105.16 -42.16 L 105.16 -42.16 L 105.24 -15.85 Q 105.24 -11.29 103.04 -7.51 Q 100.84 -3.74 97.15 -1.45 Q 93.46 0.83 88.98 0.83 Z M 88.98 -9.21 L 88.98 -9.21 Q 91.47 -9.21 93.33 -11.25 Q 95.2 -13.28 95.2 -15.85 L 95.2 -15.85 L 95.12 -42.16 Q 95.12 -44.9 93.37 -46.81 Q 91.63 -48.72 88.98 -48.72 L 88.98 -48.72 Q 86.4 -48.72 84.58 -46.85 Q 82.75 -44.99 82.75 -42.16 L 82.75 -42.16 L 82.75 -15.85 Q 82.75 -13.11 84.58 -11.16 Q 86.4 -9.21 88.98 -9.21 Z M 126.91 0.83 L 126.91 0.83 Q 122.42 0.83 118.73 -1.45 Q 115.04 -3.74 112.8 -7.51 Q 110.56 -11.29 110.56 -15.85 L 110.56 -15.85 L 110.64 -42.16 Q 110.64 -46.73 112.84 -50.46 Q 115.04 -54.2 118.77 -56.44 Q 122.51 -58.68 126.91 -58.68 L 126.91 -58.68 Q 131.39 -58.68 135.04 -56.44 Q 138.69 -54.2 140.89 -50.46 Q 143.09 -46.73 143.09 -42.16 L 143.09 -42.16 L 143.18 -15.85 Q 143.18 -11.29 140.98 -7.51 Q 138.78 -3.74 135.08 -1.45 Q 131.39 0.83 126.91 0.83 Z M 126.91 -9.21 L 126.91 -9.21 Q 129.4 -9.21 131.26 -11.25 Q 133.13 -13.28 133.13 -15.85 L 133.13 -15.85 L 133.05 -42.16 Q 133.05 -44.9 131.31 -46.81 Q 129.56 -48.72 126.91 -48.72 L 126.91 -48.72 Q 124.33 -48.72 122.51 -46.85 Q 120.68 -44.99 120.68 -42.16 L 120.68 -42.16 L 120.68 -15.85 Q 120.68 -13.11 122.51 -11.16 Q 124.33 -9.21 126.91 -9.21 Z M 164.76 -0.08 L 149.9 0 Q 149.48 0 149.48 -0.42 L 149.48 -0.42 L 149.65 -57.44 Q 149.65 -57.77 149.98 -57.77 L 149.98 -57.77 L 165.5 -57.85 Q 170.07 -57.93 173.84 -55.69 Q 177.62 -53.45 179.86 -49.68 Q 182.1 -45.9 182.1 -41.33 L 182.1 -41.33 L 182.1 -17.51 Q 182.1 -12.7 179.78 -8.76 Q 177.45 -4.81 173.55 -2.49 Q 169.65 -0.17 164.76 -0.08 L 164.76 -0.08 Z M 159.69 -47.81 L 159.61 -10.21 L 164.76 -10.21 Q 167.83 -10.21 169.94 -12.37 Q 172.06 -14.53 172.06 -17.51 L 172.06 -17.51 L 172.06 -41.42 Q 172.06 -44.07 170.11 -46.02 Q 168.16 -47.97 165.5 -47.89 L 165.5 -47.89 L 159.69 -47.81 Z M 204.68 0 L 194.63 0 Q 194.3 0 194.22 -0.42 L 194.22 -0.42 L 184.43 -57.44 Q 184.34 -57.77 184.68 -57.77 L 184.68 -57.77 L 193.97 -57.77 Q 194.3 -57.77 194.39 -57.44 L 194.39 -57.44 L 199.7 -19.92 L 205.18 -57.44 Q 205.26 -57.77 205.67 -57.77 L 205.67 -57.77 L 213.14 -57.77 Q 213.48 -57.77 213.56 -57.44 L 213.56 -57.44 L 218.95 -19.92 L 224.35 -57.44 Q 224.43 -57.77 224.76 -57.77 L 224.76 -57.77 L 233.98 -57.77 Q 234.39 -57.77 234.31 -57.44 L 234.31 -57.44 L 224.43 -0.42 Q 224.35 -0.25 224.18 -0.12 Q 224.02 0 224.02 0 L 224.02 0 L 213.97 0 Q 213.72 0 213.56 -0.42 L 213.56 -0.42 L 209.33 -30.21 L 205.09 -0.42 Q 205.01 0 204.68 0 L 204.68 0 Z M 266.35 0 L 239.54 0 Q 239.21 0 239.21 -0.42 L 239.21 -0.42 L 239.29 -57.44 Q 239.29 -57.77 239.62 -57.77 L 239.62 -57.77 L 266.26 -57.77 Q 266.6 -57.77 266.6 -57.35 L 266.6 -57.35 L 266.6 -48.06 Q 266.6 -47.73 266.26 -47.73 L 266.26 -47.73 L 249.25 -47.73 L 249.25 -34.78 L 266.26 -34.78 Q 266.6 -34.78 266.6 -34.45 L 266.6 -34.45 L 266.68 -25.07 Q 266.68 -24.73 266.35 -24.73 L 266.35 -24.73 L 249.25 -24.73 L 249.25 -10.21 L 266.35 -10.21 Q 266.68 -10.21 266.68 -9.79 L 266.68 -9.79 L 266.68 -0.33 Q 266.68 0 266.35 0 L 266.35 0 Z M 289.25 0 L 274.4 0 Q 274.07 0 274.07 -0.42 L 274.07 -0.42 L 274.23 -57.44 Q 274.23 -57.77 274.56 -57.77 L 274.56 -57.77 L 290.5 -57.77 Q 295.23 -57.77 298.97 -55.49 Q 302.7 -53.2 304.86 -49.47 Q 307.02 -45.73 307.02 -41.33 L 307.02 -41.33 Q 307.02 -37.77 305.4 -34.69 Q 303.78 -31.62 301.54 -29.71 L 301.54 -29.71 Q 303.95 -27.31 305.27 -24.15 Q 306.6 -21 306.6 -17.51 L 306.6 -17.51 Q 306.6 -12.7 304.28 -8.71 Q 301.95 -4.73 298.01 -2.37 Q 294.07 0 289.25 0 L 289.25 0 Z M 284.19 -47.89 L 284.19 -34.86 L 290.5 -34.86 Q 293.4 -34.86 295.19 -36.89 Q 296.97 -38.93 296.97 -41.33 L 296.97 -41.33 Q 296.97 -43.99 295.06 -45.94 Q 293.16 -47.89 290.5 -47.89 L 290.5 -47.89 L 284.19 -47.89 Z M 284.19 -24.82 L 284.11 -10.13 L 289.25 -10.13 Q 292.24 -10.13 294.4 -12.33 Q 296.56 -14.53 296.56 -17.51 L 296.56 -17.51 Q 296.56 -20.5 294.4 -22.66 Q 292.24 -24.82 289.25 -24.82 L 289.25 -24.82 L 284.19 -24.82 Z" stroke-linecap="round" />
</g>
		<g transform="matrix(1 0 0 1 109.25794796022171 38.02592856565383)" id="tagline-b7abf09b-adfd-43ef-bbb9-e8eab93f86d8-logo-path"  >
<path style="stroke: none; stroke-width: 0; stroke-dasharray: none; stroke-linecap: butt; stroke-dashoffset: 0; stroke-linejoin: miter; stroke-miterlimit: 4; fill: rgb(255,49,152); fill-rule: nonzero; opacity: 1;"  paint-order="stroke"  transform=" translate(-162.29500000000002, 14.27)" d="M 11.39 -21.78 L 0.74 -21.78 L 0.74 -26.61 L 26.85 -26.61 L 26.85 -21.78 L 16.22 -21.78 L 16.22 0 L 11.39 0 L 11.39 -21.78 Z M 34.75 0 L 29.93 0 L 29.93 -28.54 L 34.75 -28.54 L 34.75 0 Z M 45.4 -15.23 L 36.7 -15.23 L 36.7 -20.06 L 45.4 -20.06 Q 46.09 -20.06 46.85 -19.9 Q 47.61 -19.74 48.36 -19.41 Q 49.11 -19.07 49.8 -18.55 Q 50.49 -18.02 51.01 -17.27 Q 51.53 -16.51 51.84 -15.53 Q 52.16 -14.55 52.16 -13.3 L 52.16 -13.3 L 52.16 0 L 47.33 0 L 47.33 -13.3 Q 47.33 -14.25 46.85 -14.74 Q 46.37 -15.23 45.4 -15.23 L 45.4 -15.23 Z M 56.17 -6.64 L 56.17 -6.64 L 56.17 -13.42 Q 56.17 -14.42 56.52 -15.58 Q 56.87 -16.74 57.66 -17.73 Q 58.45 -18.72 59.72 -19.39 Q 60.99 -20.06 62.81 -20.06 L 62.81 -20.06 L 71.51 -20.06 Q 72.51 -20.06 73.67 -19.71 Q 74.83 -19.35 75.82 -18.56 Q 76.82 -17.78 77.48 -16.5 Q 78.15 -15.23 78.15 -13.42 L 78.15 -13.42 Q 78.15 -12.41 77.8 -11.25 Q 77.45 -10.09 76.66 -9.1 Q 75.87 -8.11 74.6 -7.44 Q 73.33 -6.77 71.51 -6.77 L 71.51 -6.77 L 62.81 -6.77 L 62.81 -11.36 L 71.51 -11.36 Q 72.49 -11.36 73.03 -11.96 Q 73.57 -12.56 73.57 -13.45 L 73.57 -13.45 Q 73.57 -14.4 72.97 -14.94 Q 72.36 -15.47 71.51 -15.47 L 71.51 -15.47 L 62.81 -15.47 Q 61.82 -15.47 61.29 -14.87 Q 60.75 -14.27 60.75 -13.38 L 60.75 -13.38 L 60.75 -6.64 Q 60.75 -5.68 61.35 -5.14 Q 61.95 -4.6 62.84 -4.6 L 62.84 -4.6 L 71.51 -4.6 L 71.51 0 L 62.81 0 Q 61.81 0 60.65 -0.35 Q 59.49 -0.71 58.49 -1.49 Q 57.5 -2.28 56.83 -3.55 Q 56.17 -4.82 56.17 -6.64 Z M 99.16 0 L 94.33 0 L 94.33 -26.61 L 99.16 -26.61 L 99.16 -15.73 L 116.1 -15.73 L 116.1 -26.61 L 120.92 -26.61 L 120.92 0 L 116.1 0 L 116.1 -10.87 L 99.16 -10.87 L 99.16 0 Z M 130.92 0 L 126.1 0 L 126.1 -20.06 L 130.92 -20.06 L 130.92 0 Z M 130.92 -24.18 L 126.1 -24.18 L 126.1 -28.54 L 130.92 -28.54 L 130.92 -24.18 Z M 135.32 -6.77 L 135.32 -6.77 L 135.32 -13.3 Q 135.32 -15.16 136 -16.45 Q 136.67 -17.74 137.69 -18.55 Q 138.7 -19.35 139.88 -19.71 Q 141.07 -20.06 142.07 -20.06 L 142.07 -20.06 L 150.78 -20.06 L 150.78 -15.23 L 142.11 -15.23 Q 141.15 -15.23 140.64 -14.74 Q 140.14 -14.25 140.14 -13.3 L 140.14 -13.3 L 140.14 -6.81 Q 140.14 -5.83 140.64 -5.33 Q 141.13 -4.82 142.07 -4.82 L 142.07 -4.82 L 150.78 -4.82 Q 151.76 -4.82 152.24 -5.33 Q 152.72 -5.83 152.72 -6.77 L 152.72 -6.77 L 152.72 -28.54 L 157.55 -28.54 L 157.55 -6.77 Q 157.55 -5.53 157.23 -4.54 Q 156.92 -3.54 156.4 -2.79 Q 155.88 -2.04 155.19 -1.51 Q 154.5 -0.98 153.75 -0.65 Q 153 -0.32 152.23 -0.16 Q 151.46 0 150.78 0 L 150.78 0 L 142.07 0 Q 140.83 0 139.85 -0.32 Q 138.86 -0.63 138.11 -1.16 Q 137.36 -1.69 136.83 -2.38 Q 136.3 -3.06 135.97 -3.81 Q 135.63 -4.56 135.48 -5.33 Q 135.32 -6.1 135.32 -6.77 Z M 161.93 -6.77 L 161.93 -6.77 L 161.93 -13.3 Q 161.93 -15.16 162.6 -16.45 Q 163.28 -17.74 164.29 -18.55 Q 165.3 -19.35 166.49 -19.71 Q 167.68 -20.06 168.68 -20.06 L 168.68 -20.06 L 177.38 -20.06 L 177.38 -15.23 L 168.72 -15.23 Q 167.75 -15.23 167.25 -14.74 Q 166.75 -14.25 166.75 -13.3 L 166.75 -13.3 L 166.75 -6.81 Q 166.75 -5.83 167.24 -5.33 Q 167.73 -4.82 168.68 -4.82 L 168.68 -4.82 L 177.38 -4.82 Q 178.37 -4.82 178.85 -5.33 Q 179.33 -5.83 179.33 -6.77 L 179.33 -6.77 L 179.33 -28.54 L 184.16 -28.54 L 184.16 -6.77 Q 184.16 -5.53 183.84 -4.54 Q 183.52 -3.54 183 -2.79 Q 182.49 -2.04 181.8 -1.51 Q 181.11 -0.98 180.36 -0.65 Q 179.61 -0.32 178.84 -0.16 Q 178.07 0 177.38 0 L 177.38 0 L 168.68 0 Q 167.44 0 166.45 -0.32 Q 165.47 -0.63 164.72 -1.16 Q 163.97 -1.69 163.44 -2.38 Q 162.91 -3.06 162.58 -3.81 Q 162.24 -4.56 162.08 -5.33 Q 161.93 -6.1 161.93 -6.77 Z M 188.35 -6.64 L 188.35 -6.64 L 188.35 -13.42 Q 188.35 -14.42 188.7 -15.58 Q 189.05 -16.74 189.84 -17.73 Q 190.63 -18.72 191.9 -19.39 Q 193.17 -20.06 194.99 -20.06 L 194.99 -20.06 L 203.69 -20.06 Q 204.7 -20.06 205.85 -19.71 Q 207.01 -19.35 208.01 -18.56 Q 209 -17.78 209.67 -16.5 Q 210.34 -15.23 210.34 -13.42 L 210.34 -13.42 Q 210.34 -12.41 209.98 -11.25 Q 209.63 -10.09 208.84 -9.1 Q 208.05 -8.11 206.78 -7.44 Q 205.51 -6.77 203.69 -6.77 L 203.69 -6.77 L 194.99 -6.77 L 194.99 -11.36 L 203.69 -11.36 Q 204.68 -11.36 205.21 -11.96 Q 205.75 -12.56 205.75 -13.45 L 205.75 -13.45 Q 205.75 -14.4 205.15 -14.94 Q 204.55 -15.47 203.69 -15.47 L 203.69 -15.47 L 194.99 -15.47 Q 194.01 -15.47 193.47 -14.87 Q 192.93 -14.27 192.93 -13.38 L 192.93 -13.38 L 192.93 -6.64 Q 192.93 -5.68 193.53 -5.14 Q 194.14 -4.6 195.03 -4.6 L 195.03 -4.6 L 203.69 -4.6 L 203.69 0 L 194.99 0 Q 193.99 0 192.83 -0.35 Q 191.67 -0.71 190.68 -1.49 Q 189.68 -2.28 189.02 -3.55 Q 188.35 -4.82 188.35 -6.64 Z M 218.41 0 L 213.58 0 L 213.58 -17.66 Q 213.58 -18.17 213.77 -18.6 Q 213.95 -19.04 214.29 -19.36 Q 214.62 -19.69 215.07 -19.87 Q 215.51 -20.06 216.01 -20.06 L 216.01 -20.06 L 226.89 -20.06 Q 227.8 -20.06 228.81 -19.85 Q 229.82 -19.65 230.81 -19.19 Q 231.8 -18.74 232.7 -18.04 Q 233.6 -17.35 234.3 -16.36 Q 235 -15.36 235.4 -14.06 Q 235.81 -12.77 235.81 -11.13 L 235.81 -11.13 L 235.81 0 L 230.99 0 L 230.99 -11.13 Q 230.99 -12.08 230.66 -12.83 Q 230.34 -13.58 229.78 -14.12 Q 229.22 -14.66 228.47 -14.95 Q 227.72 -15.23 226.85 -15.23 L 226.85 -15.23 L 218.41 -15.23 L 218.41 0 Z M 252.29 -6.77 L 252.29 -6.77 L 252.29 -28.54 L 257.11 -28.54 L 257.11 -6.77 Q 257.11 -5.88 257.67 -5.35 Q 258.23 -4.82 259.06 -4.82 L 259.06 -4.82 L 261.21 -4.82 L 261.21 0 L 259.06 0 Q 258.02 0 256.84 -0.35 Q 255.67 -0.71 254.64 -1.51 Q 253.62 -2.32 252.96 -3.61 Q 252.29 -4.9 252.29 -6.77 Z M 269.21 0 L 264.39 0 L 264.39 -20.06 L 269.21 -20.06 L 269.21 0 Z M 269.21 -24.18 L 264.39 -24.18 L 264.39 -28.54 L 269.21 -28.54 L 269.21 -24.18 Z M 278.65 0 L 273.83 0 L 273.83 -17.66 Q 273.83 -18.17 274.02 -18.6 Q 274.2 -19.04 274.54 -19.36 Q 274.87 -19.69 275.31 -19.87 Q 275.76 -20.06 276.26 -20.06 L 276.26 -20.06 L 287.13 -20.06 Q 288.04 -20.06 289.05 -19.85 Q 290.07 -19.65 291.06 -19.19 Q 292.05 -18.74 292.95 -18.04 Q 293.85 -17.35 294.55 -16.36 Q 295.24 -15.36 295.65 -14.06 Q 296.06 -12.77 296.06 -11.13 L 296.06 -11.13 L 296.06 0 L 291.23 0 L 291.23 -11.13 Q 291.23 -12.08 290.91 -12.83 Q 290.58 -13.58 290.03 -14.12 Q 289.47 -14.66 288.72 -14.95 Q 287.97 -15.23 287.1 -15.23 L 287.1 -15.23 L 278.65 -15.23 L 278.65 0 Z M 305.19 0 L 300.36 0 L 300.36 -28.54 L 305.19 -28.54 L 305.19 0 Z M 306.41 -11.24 L 306.41 -11.24 Q 306.45 -11.76 306.68 -12.22 Q 306.91 -12.67 307.32 -12.99 L 307.32 -12.99 L 316.13 -20.09 L 323.85 -20.09 L 312.5 -10.95 L 323.85 0 L 316.9 0 L 307.17 -9.39 Q 306.41 -10.08 306.41 -11.1 L 306.41 -11.1 Q 306.41 -11.17 306.41 -11.24 Z" stroke-linecap="round" />
</g>
		<g transform="matrix(0.5621943541077801 0 0 0.5621943541077801 -167.19560730505478 0.30409356725147063)" id="logo-logo"  >
<g style=""  paint-order="stroke"   >
		<g transform="matrix(0.2446435833697689 0 0 -0.24464358336976894 0 0)"  >
<path style="stroke: none; stroke-width: 1; stroke-dasharray: none; stroke-linecap: butt; stroke-dashoffset: 0; stroke-linejoin: miter; stroke-miterlimit: 10; fill: rgb(76,6,146); fill-rule: evenodd; opacity: 1;"  paint-order="stroke"  transform=" translate(-6120.691801313054, -5070.655000000001)" d="M 6804.89 4883.05 C 6786.6900000000005 4756.77 6618.89 4748.45 6518.42 4761.34 C 6580.81 4776.05 6675.17 4797.39 6683.52 4874.46 C 6688.450000000001 4919.4800000000005 6657.09 4963.25 6601.320000000001 4994.25 C 6565.030000000001 4783.8 6381.660000000001 4623.66 6160.830000000001 4623.66 C 6027.27 4623.66 5907.380000000001 4682.3 5825.4400000000005 4775.22 C 6076.55 4719.780000000001 6251.7300000000005 4827.21 6316.820000000001 4939.88 C 6382.14 4937.55 6436.360000000001 4989.56 6436.360000000001 5054.97 C 6436.360000000001 5118.56 6384.77 5170.14 6321.18 5170.14 C 6257.570000000001 5170.14 6205.9800000000005 5118.56 6205.9800000000005 5054.97 C 6205.9800000000005 5024.62 6217.740000000001 4996.9800000000005 6236.9400000000005 4976.42 C 6163.72 4891.79 6055.820000000001 4869.43 5942.3 4886.01 C 5748.46 4914.37 5538.2 5056.42 5456.26 5196.46 C 5403.74 5286.24 5453.27 5345.17 5543.05 5362.76 C 5613.77 5376.59 5700.41 5363.84 5744.46 5342.38 C 5640.83 5354.62 5532.27 5331.650000000001 5557.63 5256.54 C 5572.97 5211.2 5641.68 5152.3 5716.88 5122.55 C 5742.59 5344.97 5931.56 5517.650000000001 6160.83 5517.650000000001 C 6303.68 5517.650000000001 6430.88 5450.660000000001 6512.7 5346.34 C 6334.71 5375.110000000001 6143.889999999999 5326.54 6020.38 5199.81 C 6013.93 5200.93 6007.31 5201.5 6000.52 5201.5 C 5936.92 5201.5 5885.360000000001 5149.97 5885.360000000001 5086.36 C 5885.360000000001 5022.71 5936.920000000001 4971.16 6000.52 4971.16 C 6064.13 4971.16 6115.71 5022.71 6115.71 5086.36 C 6115.71 5106.65 6110.46 5125.71 6101.22 5142.259999999999 C 6203.400000000001 5221.61 6370.55 5232.669999999999 6513.72 5190.249999999999 C 6635.38 5154.229999999999 6826.64 5034.109999999999 6804.89 4883.049999999999 z M 6321.18 5106.63 C 6292.66 5106.63 6269.530000000001 5083.49 6269.530000000001 5054.97 C 6269.530000000001 5026.43 6292.660000000001 5003.33 6321.18 5003.33 C 6349.68 5003.33 6372.8 5026.43 6372.8 5054.97 C 6372.8 5083.490000000001 6349.68 5106.63 6321.18 5106.63 z M 6000.52 5138 C 5971.990000000001 5138 5948.89 5114.84 5948.89 5086.36 C 5948.89 5057.82 5971.990000000001 5034.7 6000.52 5034.7 C 6029.05 5034.7 6052.160000000001 5057.82 6052.160000000001 5086.36 C 6052.160000000001 5114.839999999999 6029.050000000001 5138 6000.52 5138" stroke-linecap="round" />
</g>
</g>
</g>
</g>
</g>
</svg>